<svg xmlns="http://www.w3.org/2000/svg">
    <defs>
        <style>
        .img { display: none }
        .img:target { display: inline }
        </style>
    </defs>

    <svg viewBox="0 0 16 16">
        <g id="chart" class="img">
            <rect x="6" width="4" height="16"/>
            <rect x="12" y="4" width="4" height="12"/>
            <rect x="0" y="8" width="4" height="8"/>
        </g>
    </svg>

    <svg viewBox="0 0 14 8" fill="none" xmlns="http://www.w3.org/2000/svg">
			<g id="arrow" class="img">
				<path d="M13.3536 4.35355C13.5488 4.15829 13.5488 3.84171 13.3536 3.64645L10.1716 0.464465C9.97631 0.269203 9.65973 0.269203 9.46447 0.464465C9.2692 0.659727 9.2692 0.97631 9.46447 1.17157L12.2929 4L9.46447 6.82843C9.2692 7.02369 9.2692 7.34027 9.46447 7.53553C9.65973 7.7308 9.97631 7.7308 10.1716 7.53553L13.3536 4.35355ZM4.37114e-08 4.5L13 4.5L13 3.5L-4.37114e-08 3.5L4.37114e-08 4.5Z" fill="#BE8F7E"/>
			</g>
    </svg>

    <svg viewBox="0 0 16 26" fill="none" xmlns="http://www.w3.org/2000/svg">
			<g id="up-arrow" class="img">
				<path d="M8.70711 0.292892C8.31658 -0.0976314 7.68342 -0.0976315 7.29289 0.292892L0.928933 6.65685C0.538409 7.04738 0.538409 7.68054 0.928933 8.07107C1.31946 8.46159 1.95262 8.46159 2.34315 8.07107L8 2.41421L13.6569 8.07107C14.0474 8.46159 14.6805 8.46159 15.0711 8.07107C15.4616 7.68054 15.4616 7.04738 15.0711 6.65685L8.70711 0.292892ZM9 26L9 1L7 1L7 26L9 26Z" fill="white"/>
			</g>
		</svg>

		<svg viewBox="0 0 139 20" fill="none" xmlns="http://www.w3.org/2000/svg">
			<g id="duga" class="img">
				<path d="M1 18.7384C24.8333 3.07175 79.5 -11.7612 138 18.7384" stroke="#D9D9D9" stroke-dasharray="15 15"/>
			</g>
		</svg>

		<svg viewBox="0 0 27 16" fill="none" xmlns="http://www.w3.org/2000/svg">
			<g id="page-arrow" class="img">
				<path d="M0.292893 7.29289C-0.0976314 7.68341 -0.0976315 8.31658 0.292892 8.7071L6.65685 15.0711C7.04738 15.4616 7.68054 15.4616 8.07107 15.0711C8.46159 14.6805 8.46159 14.0474 8.07107 13.6569L2.41421 8L8.07107 2.34314C8.46159 1.95262 8.46159 1.31945 8.07107 0.928929C7.68055 0.538404 7.04738 0.538404 6.65686 0.928929L0.292893 7.29289ZM27 7L1 7L1 9L27 9L27 7Z" fill="#B0B0B0"/>
			</g>
		</svg>

		<svg viewBox="0 0 151 90" fill="none" xmlns="http://www.w3.org/2000/svg">
			<g id="dots" class="img">
				<circle r="5.20204" transform="matrix(-1 0 0 1 145.609 5.20204)" fill="#EAEAEA"/>
				<circle r="5.20204" transform="matrix(-1 0 0 1 145.609 44.8671)" fill="#EAEAEA"/>
				<circle r="5.20204" transform="matrix(-1 0 0 1 145.609 84.5331)" fill="#EAEAEA"/>
				<circle r="5.20204" transform="matrix(-1 0 0 1 110.508 5.20204)" fill="#EAEAEA"/>
				<circle r="5.20204" transform="matrix(-1 0 0 1 110.508 44.8671)" fill="#EAEAEA"/>
				<circle r="5.20204" transform="matrix(-1 0 0 1 110.508 84.5331)" fill="#EAEAEA"/>
				<circle r="5.20204" transform="matrix(-1 0 0 1 75.4054 5.20204)" fill="#EAEAEA"/>
				<circle r="5.20204" transform="matrix(-1 0 0 1 75.4054 44.8671)" fill="#EAEAEA"/>
				<circle r="5.20204" transform="matrix(-1 0 0 1 75.4054 84.5331)" fill="#EAEAEA"/>
				<circle r="5.20204" transform="matrix(-1 0 0 1 40.3038 5.20204)" fill="#EAEAEA"/>
				<circle r="5.20204" transform="matrix(-1 0 0 1 40.3038 44.8671)" fill="#EAEAEA"/>
				<circle r="5.20204" transform="matrix(-1 0 0 1 40.3038 84.5331)" fill="#EAEAEA"/>
				<circle r="5.20204" transform="matrix(-1 0 0 1 5.20225 5.20204)" fill="#EAEAEA"/>
				<circle r="5.20204" transform="matrix(-1 0 0 1 5.20225 44.8671)" fill="#EAEAEA"/>
				<circle r="5.20204" transform="matrix(-1 0 0 1 5.20225 84.5331)" fill="#EAEAEA"/>
			</g>
		</svg>

		<svg viewBox="0 0 30 32" fill="none" xmlns="http://www.w3.org/2000/svg">
			<g id="zoom" class="img">
				<circle cx="16.7906" cy="12.2105" r="11.2105" stroke="#DDDDDD" stroke-width="2"/>
				<line x1="9.26667" y1="21.2518" x2="1.41036" y2="30.4175" stroke="#DDDDDD" stroke-width="2" stroke-linecap="round" stroke-linejoin="round"/>
			</g>
		</svg>







</svg>